<?xml version="1.0" encoding="UTF-8" standalone="no"?>
<!DOCTYPE svg PUBLIC "-//W3C//DTD SVG 1.1//EN" "http://www.w3.org/Graphics/SVG/1.1/DTD/svg11.dtd">
<svg width="100%" height="100%" viewBox="0 0 1880 250" version="1.1" xmlns="http://www.w3.org/2000/svg" xmlns:xlink="http://www.w3.org/1999/xlink" xml:space="preserve" xmlns:serif="http://www.serif.com/" style="fill-rule:evenodd;clip-rule:evenodd;stroke-linecap:round;stroke-linejoin:round;stroke-miterlimit:1.5;">
    <g transform="matrix(0.597293,0,0,0.597293,-36.4576,-410.245)">
        <g transform="matrix(13.5781,0,0,1.90962,-1638.57,277.062)">
            <g transform="matrix(0.464863,0,0,3.30536,110.834,-523.316)">
                <path d="M209.297,285.8L212.657,285.8L217.529,257.996L233.657,257.996L234.245,254.804L218.117,254.804L222.485,230.192L241.217,230.192L241.721,227L219.629,227L209.297,285.8Z" style="fill:white;fill-rule:nonzero;"/>
            </g>
            <g transform="matrix(0.464863,0,0,3.30536,110.834,-523.316)">
                <path d="M263.309,227L249.785,227L239.453,285.8L242.813,285.8L247.349,260.012L258.857,260.012L264.485,285.8L268.097,285.8L262.385,259.592C268.685,258.248 271.625,254.132 272.801,247.58L274.229,239.432C275.657,231.368 271.373,227 263.309,227ZM270.617,240.944L269.693,246.068C268.433,253.628 265.157,256.82 257.765,256.82L247.937,256.82L252.641,230.192L262.469,230.192C269.861,230.192 271.961,233.384 270.617,240.944Z" style="fill:white;fill-rule:nonzero;"/>
            </g>
            <g transform="matrix(0.464863,0,0,3.30536,110.834,-523.316)">
                <path d="M284.813,238.76L278.597,274.04C277.169,282.104 281.453,286.472 289.517,286.472L290.189,286.472C299.933,286.472 304.049,282.104 305.477,274.04L311.693,238.76C313.121,230.696 308.837,226.328 300.773,226.328L300.101,226.328C290.357,226.328 286.241,230.612 284.813,238.76ZM282.209,272.528L287.921,240.272C289.181,232.712 292.457,229.52 299.849,229.52C307.241,229.52 309.341,232.712 308.081,240.272L302.369,272.528C301.025,280.088 297.749,283.28 290.357,283.28C282.965,283.28 280.865,280.088 282.209,272.528Z" style="fill:white;fill-rule:nonzero;"/>
            </g>
            <g transform="matrix(0.464863,0,0,3.30536,110.834,-523.316)">
                <path d="M346.469,256.904L332.693,256.904L332.105,260.096L342.521,260.096L340.337,272.528C338.993,280.088 335.717,283.28 328.325,283.28C320.933,283.28 318.833,280.088 320.177,272.528L325.889,240.272C327.149,232.712 330.425,229.52 337.817,229.52C345.209,229.52 347.309,232.712 346.049,240.272L344.957,246.32L348.317,246.32L349.661,238.76C351.005,230.864 346.805,226.328 338.741,226.328L338.069,226.328C328.325,226.328 324.125,230.864 322.781,238.76L316.565,274.04C315.053,282.356 319.421,286.472 327.485,286.472L328.157,286.472C337.901,286.472 341.933,282.272 343.445,274.04L346.469,256.904Z" style="fill:white;fill-rule:nonzero;"/>
            </g>
            <g transform="matrix(0.464863,0,0,3.30536,110.834,-523.316)">
                <path d="M384.269,256.904L370.493,256.904L369.905,260.096L380.321,260.096L378.137,272.528C376.793,280.088 373.517,283.28 366.125,283.28C358.733,283.28 356.633,280.088 357.977,272.528L363.689,240.272C364.949,232.712 368.225,229.52 375.617,229.52C383.009,229.52 385.109,232.712 383.849,240.272L382.757,246.32L386.117,246.32L387.461,238.76C388.805,230.864 384.605,226.328 376.541,226.328L375.869,226.328C366.125,226.328 361.925,230.864 360.581,238.76L354.365,274.04C352.853,282.356 357.221,286.472 365.285,286.472L365.957,286.472C375.701,286.472 379.733,282.272 381.245,274.04L384.269,256.904Z" style="fill:white;fill-rule:nonzero;"/>
            </g>
            <g transform="matrix(0.464863,0,0,3.30536,110.834,-523.316)">
                <path d="M413.081,285.8L413.669,282.608L394.349,282.608L398.717,257.576L415.181,257.576L415.769,254.384L399.305,254.384L403.589,230.192L422.657,230.192L423.161,227L400.733,227L390.401,285.8L413.081,285.8Z" style="fill:white;fill-rule:nonzero;"/>
            </g>
            <g transform="matrix(0.464863,0,0,3.30536,110.834,-523.316)">
                <path d="M446.177,227L432.821,227L422.489,285.8L435.845,285.8C445.589,285.8 449.705,281.432 451.133,273.368L457.097,239.432C458.525,231.368 454.241,227 446.177,227ZM453.485,240.944L448.025,271.856C446.681,279.416 443.489,282.608 436.097,282.608L426.437,282.608L435.677,230.192L445.337,230.192C452.729,230.192 454.829,233.384 453.485,240.944Z" style="fill:white;fill-rule:nonzero;"/>
            </g>
            <g transform="matrix(0.464863,0,0,3.30536,110.834,-523.316)">
                <path d="M495.065,227L465.665,227L464.153,235.568L473.981,235.568L465.161,285.8L474.905,285.8L483.725,235.568L493.553,235.568L495.065,227Z" style="fill:white;fill-rule:nonzero;"/>
            </g>
            <g transform="matrix(0.464863,0,0,3.30536,110.834,-523.316)">
                <path d="M529.505,227L519.845,227L505.397,270.596L506.237,227L496.577,227L497.333,285.8L508.085,285.8L529.505,227Z" style="fill:white;fill-rule:nonzero;"/>
            </g>
        </g>
        <g transform="matrix(3.24509,0,0,3.24509,-3202.13,-1226.29)">
            <clipPath id="_clip1">
                <rect x="1083.64" y="607.003" width="184.673" height="103.122"/>
            </clipPath>
            <g clip-path="url(#_clip1)">
                <g id="Logo_FroggedTV" transform="matrix(0.330776,-0.0625173,0.0622948,0.331958,1194.58,687.906)">
                    <g transform="matrix(1,0,0,1,-298.5,-187.5)">
                        <clipPath id="_clip2">
                            <rect x="0" y="0" width="597" height="375"/>
                        </clipPath>
                        <g clip-path="url(#_clip2)">
                            <g transform="matrix(1,0,0,1,-4.03,-236.96)">
                                <path d="M170.38,253.47C172.206,253.304 174.044,253.304 175.87,253.47C189.14,255.95 201.52,253.07 214.35,249.28C273.62,231.78 333.11,233.73 392.35,249.63C404.86,252.99 417,257.52 430.11,253.12C487.93,251.73 530.91,277.12 560.52,325.99C570.3,342.14 575.4,360.1 578.25,378.74C578.801,381.982 579.969,385.088 581.69,387.89C591.48,404.08 598.25,421.33 600.14,440.22C603.39,472.76 590.75,498.68 566.38,519.52C553.74,530.33 539.49,538.52 524.38,545.42C459.857,574.69 392.105,596.242 322.53,609.63C303.99,613.23 285.62,610.92 267.53,606.85C210.08,594 153.78,577.25 100,552.94C80.61,544.17 60.88,535.79 44.11,522.19C38.863,518.068 33.855,513.651 29.11,508.96C3.24,482.51 -2.89,450.53 12,416.62C16.11,407.23 22,398.62 27.08,389.62C27.95,388.07 29.14,386.38 29.17,384.73C29.83,353.84 41.89,327.35 61.31,304.14C89.6,270.32 126.35,253.82 170.38,253.47ZM303.74,595.55L303.97,594.65C308.11,594.25 312.3,594.14 316.38,593.41C385.209,581.253 452.263,560.595 516,531.91C532.66,524.38 548,514.78 560.73,501.38C577.27,483.89 585.6,463.28 583.17,439.04C581.4,421.33 575,405.15 565.57,390.04C563.919,387.385 562.802,384.433 562.28,381.35C555.14,337.35 532.28,304.14 493.04,282.97C466.98,268.92 439.27,262.54 409.59,269.29C408.302,269.518 406.977,269.415 405.74,268.99C383.811,262.045 361.274,257.19 338.43,254.49C293.21,249.03 249.01,253.19 205.8,267.78C203.119,268.556 200.304,268.757 197.54,268.37C150.78,263.24 110.35,276.1 78.29,311.25C58.88,332.53 46.87,357.38 45.95,386.81C45.89,388.6 44.57,390.42 43.64,392.12C38.34,401.77 32.1,411 27.91,421C19.2,441.87 20.19,462.64 31.77,482.48C38.86,494.64 48.77,504.22 59.88,512.61C79.27,527.21 101.62,536.22 123.69,545.5C166.49,563.5 211.01,576.33 256.16,586.87C271.83,590.57 287.87,592.71 303.74,595.55Z" style="fill:white;fill-rule:nonzero;"/>
                            </g>
                            <g transform="matrix(1,0,0,1,-4.03,-236.96)">
                                <path d="M188.22,283.73C203.68,287.15 217.97,281.92 232.7,278.37C288.49,264.91 343.8,268.44 398.59,284.47C400.443,285.135 402.426,285.358 404.38,285.12C432.52,279.28 458.84,285.12 483.6,298.34C518.92,317.13 540.39,346.34 547,386.12C547.55,388.864 548.634,391.474 550.19,393.8C559.86,408.97 566.39,425.15 566.71,443.41C567.04,462.66 559.63,478.76 546.43,492.41C534.16,505 519.34,514 503.3,520.85C448.59,544.35 391.88,561.19 333.51,573C310.3,577.7 287.85,576.31 265.2,571.25C219.12,560.95 173.63,548.56 129.92,530.51C108.86,521.81 87.51,513.43 69.66,498.51C56.56,487.62 46,475 42.27,457.88C38.85,442.32 42.16,427.67 49.44,413.88C53.17,406.88 59.06,400.8 61.88,393.49C64.62,386.4 63.74,377.97 66.08,370.64C81.67,321.7 116.08,294.32 165.82,285.05C169.93,284.361 174.077,283.92 178.24,283.73C181.55,283.56 184.89,283.73 188.22,283.73ZM393.58,383.06C394.49,391.46 394.58,400.06 396.52,408.22C398.356,416.621 401.298,424.742 405.27,432.37C416.89,453.75 434.76,461.83 458.49,456.94C484.66,451.55 505.6,439 515.64,412.7C521.24,398.02 521.58,382.7 519.09,367.49C515.44,345.12 503.82,328.63 482.34,319.66C469.06,314.11 455.25,313.45 441.23,314.02C422.38,314.78 408.66,323.31 401.23,341.02C395.58,354.46 394.1,368.59 393.58,383.06ZM216.33,382.94C216.15,369 215,354.59 209.17,341C202.7,325.87 191.55,316.3 174.88,314.95C164.99,314.15 154.82,313.87 145.05,315.3C124.2,318.36 107,328.15 97.81,348C87.81,369.69 87.27,392.32 95.91,414.55C105.12,438.25 124.47,450.12 148.09,455.94C158.4,458.48 168.78,460.94 179.36,456.12C193.64,449.61 203.21,438.87 209.16,424.65C214.66,411.5 216.28,397.67 216.33,382.94ZM325.53,514.75C326.48,520.6 327.22,526.32 328.43,531.94C328.75,533.42 330.51,534.6 331.61,535.94C332.79,534.73 334.61,533.71 335.05,532.28C338.423,520.95 338.423,508.88 335.05,497.55C334.65,496.2 333.05,495.21 331.98,494.05C330.8,495.26 328.89,496.31 328.57,497.71C327.26,503.28 326.49,509 325.53,514.75ZM271.69,494.12C264.1,500.88 264.42,530.87 272.12,535.76C279.38,528.34 279.08,499.88 271.69,494.11L271.69,494.12Z" style="fill:white;fill-rule:nonzero;"/>
                            </g>
                            <g transform="matrix(1,0,0,1,-4.03,-236.96)">
                                <path d="M489.3,367.91C489.07,376.22 487.3,384.06 481.65,390.51C475.25,397.77 466.54,397.79 459.99,390.69C449.75,379.58 449.68,356.69 459.85,345.44C466.48,338.11 475.34,338.15 481.85,345.67C487.34,352 489.05,359.71 489.3,367.91ZM120.31,364.95C120.57,358.56 122.31,350.87 127.82,344.55C134.38,337.09 143.2,337.15 149.82,344.55C159.82,355.72 159.82,378.33 149.82,389.43C143.17,396.82 134.45,396.81 127.82,389.43C123,384.1 120.27,375.71 120.31,364.95Z" style="fill:white;fill-rule:nonzero;"/>
                            </g>
                        </g>
                    </g>
                </g>
            </g>
        </g>
        <g transform="matrix(2.60019,0,0,2.60019,-810.9,27.6544)">
            <path d="M665,275.6C665,267.542 658.458,261 650.4,261L354.6,261C346.542,261 340,267.542 340,275.6L340,392.4C340,400.458 346.542,407 354.6,407L650.4,407C658.458,407 665,400.458 665,392.4L665,275.6Z" style="fill:none;stroke:white;stroke-width:8px;"/>
        </g>
    </g>
</svg>
