<?xml version="1.0" encoding="UTF-8" standalone="no"?>
<!DOCTYPE svg PUBLIC "-//W3C//DTD SVG 1.1//EN" "http://www.w3.org/Graphics/SVG/1.1/DTD/svg11.dtd">
<svg width="100%" height="100%" viewBox="0 0 2000 1600" version="1.1" xmlns="http://www.w3.org/2000/svg" xmlns:xlink="http://www.w3.org/1999/xlink" xml:space="preserve" xmlns:serif="http://www.serif.com/" style="fill-rule:evenodd;clip-rule:evenodd;stroke-linecap:round;stroke-linejoin:round;stroke-miterlimit:1.5;">
    <g transform="matrix(-5.91396,0,0,5.91396,3909.67,-1543.9)">
        <g transform="matrix(-1.24802,0,0,1.24802,1914.14,-464.249)">
            <clipPath id="_clip1">
                <rect x="1083.64" y="607.003" width="184.673" height="103.122"/>
            </clipPath>
            <g clip-path="url(#_clip1)">
                <g id="Logo_FroggedTV" transform="matrix(0.330776,-0.0625173,0.0622948,0.331958,1194.58,687.906)">
                    <g transform="matrix(1,0,0,1,-298.5,-187.5)">
                        <clipPath id="_clip2">
                            <rect x="0" y="0" width="597" height="375"/>
                        </clipPath>
                        <g clip-path="url(#_clip2)">
                            <g transform="matrix(1,0,0,1,-4.03,-236.96)">
                                <path d="M170.38,253.47C172.206,253.304 174.044,253.304 175.87,253.47C189.14,255.95 201.52,253.07 214.35,249.28C273.62,231.78 333.11,233.73 392.35,249.63C404.86,252.99 417,257.52 430.11,253.12C487.93,251.73 530.91,277.12 560.52,325.99C570.3,342.14 575.4,360.1 578.25,378.74C578.801,381.982 579.969,385.088 581.69,387.89C591.48,404.08 598.25,421.33 600.14,440.22C603.39,472.76 590.75,498.68 566.38,519.52C553.74,530.33 539.49,538.52 524.38,545.42C459.857,574.69 392.105,596.242 322.53,609.63C303.99,613.23 285.62,610.92 267.53,606.85C210.08,594 153.78,577.25 100,552.94C80.61,544.17 60.88,535.79 44.11,522.19C38.863,518.068 33.855,513.651 29.11,508.96C3.24,482.51 -2.89,450.53 12,416.62C16.11,407.23 22,398.62 27.08,389.62C27.95,388.07 29.14,386.38 29.17,384.73C29.83,353.84 41.89,327.35 61.31,304.14C89.6,270.32 126.35,253.82 170.38,253.47ZM303.74,595.55L303.97,594.65C308.11,594.25 312.3,594.14 316.38,593.41C385.209,581.253 452.263,560.595 516,531.91C532.66,524.38 548,514.78 560.73,501.38C577.27,483.89 585.6,463.28 583.17,439.04C581.4,421.33 575,405.15 565.57,390.04C563.919,387.385 562.802,384.433 562.28,381.35C555.14,337.35 532.28,304.14 493.04,282.97C466.98,268.92 439.27,262.54 409.59,269.29C408.302,269.518 406.977,269.415 405.74,268.99C383.811,262.045 361.274,257.19 338.43,254.49C293.21,249.03 249.01,253.19 205.8,267.78C203.119,268.556 200.304,268.757 197.54,268.37C150.78,263.24 110.35,276.1 78.29,311.25C58.88,332.53 46.87,357.38 45.95,386.81C45.89,388.6 44.57,390.42 43.64,392.12C38.34,401.77 32.1,411 27.91,421C19.2,441.87 20.19,462.64 31.77,482.48C38.86,494.64 48.77,504.22 59.88,512.61C79.27,527.21 101.62,536.22 123.69,545.5C166.49,563.5 211.01,576.33 256.16,586.87C271.83,590.57 287.87,592.71 303.74,595.55Z" style="fill:white;fill-rule:nonzero;"/>
                            </g>
                            <g transform="matrix(1,0,0,1,-4.03,-236.96)">
                                <path d="M188.22,283.73C203.68,287.15 217.97,281.92 232.7,278.37C288.49,264.91 343.8,268.44 398.59,284.47C400.443,285.135 402.426,285.358 404.38,285.12C432.52,279.28 458.84,285.12 483.6,298.34C518.92,317.13 540.39,346.34 547,386.12C547.55,388.864 548.634,391.474 550.19,393.8C559.86,408.97 566.39,425.15 566.71,443.41C567.04,462.66 559.63,478.76 546.43,492.41C534.16,505 519.34,514 503.3,520.85C448.59,544.35 391.88,561.19 333.51,573C310.3,577.7 287.85,576.31 265.2,571.25C219.12,560.95 173.63,548.56 129.92,530.51C108.86,521.81 87.51,513.43 69.66,498.51C56.56,487.62 46,475 42.27,457.88C38.85,442.32 42.16,427.67 49.44,413.88C53.17,406.88 59.06,400.8 61.88,393.49C64.62,386.4 63.74,377.97 66.08,370.64C81.67,321.7 116.08,294.32 165.82,285.05C169.93,284.361 174.077,283.92 178.24,283.73C181.55,283.56 184.89,283.73 188.22,283.73ZM393.58,383.06C394.49,391.46 394.58,400.06 396.52,408.22C398.356,416.621 401.298,424.742 405.27,432.37C416.89,453.75 434.76,461.83 458.49,456.94C484.66,451.55 505.6,439 515.64,412.7C521.24,398.02 521.58,382.7 519.09,367.49C515.44,345.12 503.82,328.63 482.34,319.66C469.06,314.11 455.25,313.45 441.23,314.02C422.38,314.78 408.66,323.31 401.23,341.02C395.58,354.46 394.1,368.59 393.58,383.06ZM216.33,382.94C216.15,369 215,354.59 209.17,341C202.7,325.87 191.55,316.3 174.88,314.95C164.99,314.15 154.82,313.87 145.05,315.3C124.2,318.36 107,328.15 97.81,348C87.81,369.69 87.27,392.32 95.91,414.55C105.12,438.25 124.47,450.12 148.09,455.94C158.4,458.48 168.78,460.94 179.36,456.12C193.64,449.61 203.21,438.87 209.16,424.65C214.66,411.5 216.28,397.67 216.33,382.94ZM325.53,514.75C326.48,520.6 327.22,526.32 328.43,531.94C328.75,533.42 330.51,534.6 331.61,535.94C332.79,534.73 334.61,533.71 335.05,532.28C338.423,520.95 338.423,508.88 335.05,497.55C334.65,496.2 333.05,495.21 331.98,494.05C330.8,495.26 328.89,496.31 328.57,497.71C327.26,503.28 326.49,509 325.53,514.75ZM271.69,494.12C264.1,500.88 264.42,530.87 272.12,535.76C279.38,528.34 279.08,499.88 271.69,494.11L271.69,494.12Z" style="fill:white;fill-rule:nonzero;"/>
                            </g>
                            <g transform="matrix(1,0,0,1,-4.03,-236.96)">
                                <path d="M489.3,367.91C489.07,376.22 487.3,384.06 481.65,390.51C475.25,397.77 466.54,397.79 459.99,390.69C449.75,379.58 449.68,356.69 459.85,345.44C466.48,338.11 475.34,338.15 481.85,345.67C487.34,352 489.05,359.71 489.3,367.91ZM120.31,364.95C120.57,358.56 122.31,350.87 127.82,344.55C134.38,337.09 143.2,337.15 149.82,344.55C159.82,355.72 159.82,378.33 149.82,389.43C143.17,396.82 134.45,396.81 127.82,389.43C123,384.1 120.27,375.71 120.31,364.95Z" style="fill:white;fill-rule:nonzero;"/>
                            </g>
                        </g>
                    </g>
                </g>
            </g>
        </g>
        <g transform="matrix(-1,0,0,1,994.5,18)">
            <path d="M665,275.6C665,267.542 658.458,261 650.4,261L354.6,261C346.542,261 340,267.542 340,275.6L340,392.4C340,400.458 346.542,407 354.6,407L650.4,407C658.458,407 665,400.458 665,392.4L665,275.6Z" style="fill:none;stroke:white;stroke-width:10px;"/>
        </g>
        <g transform="matrix(-0.866214,0,0,0.106522,831.904,430.02)">
            <g transform="matrix(1.15445,0,0,9.38777,-31.9885,-1904.02)">
                <path d="M209.302,285.795L212.661,285.795L217.531,257.991L233.654,257.991L234.242,254.809L218.119,254.809L222.486,230.187L241.212,230.187L241.716,227.005L219.631,227.005L209.302,285.795Z" style="fill:white;fill-rule:nonzero;"/>
            </g>
            <g transform="matrix(1.15445,0,0,9.38777,-31.9885,-1904.02)">
                <path d="M263.312,227.005L249.788,227.005L239.456,285.795L242.816,285.795L247.352,260.007L258.86,260.007L264.488,285.795L268.1,285.795L262.388,259.588C268.688,258.249 271.623,254.136 272.79,247.582L274.207,239.43C275.633,231.363 271.373,227.005 263.312,227.005ZM270.62,240.943L269.696,246.069C268.436,253.632 265.16,256.825 257.768,256.825L247.94,256.825L252.644,230.187L262.472,230.187C269.864,230.187 271.957,233.38 270.62,240.943Z" style="fill:white;fill-rule:nonzero;"/>
            </g>
            <g transform="matrix(1.15445,0,0,9.38777,-31.9885,-1904.02)">
                <path d="M284.806,238.756L278.62,274.043C277.194,282.109 281.454,286.467 289.502,286.467L290.173,286.467C299.901,286.467 304.01,282.109 305.436,274.043L311.66,238.756C313.089,230.691 308.793,226.333 300.74,226.333L300.069,226.333C290.341,226.333 286.232,230.607 284.806,238.756ZM282.206,272.531L287.909,240.269C289.167,232.707 292.437,229.515 299.817,229.515C307.197,229.515 309.299,232.707 308.036,240.269L302.333,272.531C300.991,280.093 297.721,283.285 290.341,283.285C282.961,283.285 280.871,280.093 282.206,272.531Z" style="fill:white;fill-rule:nonzero;"/>
            </g>
            <g transform="matrix(1.15445,0,0,9.38777,-31.9885,-1904.02)">
                <path d="M346.498,256.909L332.707,256.909L332.118,260.091L342.547,260.091L340.36,272.528C339.014,280.092 335.734,283.285 328.333,283.285C320.932,283.285 318.845,280.092 320.175,272.528L325.894,240.271C327.156,232.708 330.436,229.515 337.837,229.515C345.238,229.515 347.331,232.708 346.079,240.271L344.986,246.321L348.331,246.321L349.663,238.758C351.005,230.859 346.831,226.333 338.762,226.333L338.089,226.333C328.333,226.333 324.128,230.859 322.782,238.758L316.61,274.041C315.103,282.361 319.425,286.467 327.492,286.467L328.165,286.467C337.921,286.467 341.958,282.277 343.472,274.041L346.498,256.909Z" style="fill:white;fill-rule:nonzero;"/>
            </g>
            <g transform="matrix(1.15445,0,0,9.38777,-31.9885,-1904.02)">
                <path d="M384.298,256.909L370.507,256.909L369.918,260.091L380.347,260.091L378.16,272.528C376.814,280.092 373.534,283.285 366.133,283.285C358.732,283.285 356.645,280.092 357.975,272.528L363.694,240.271C364.956,232.708 368.236,229.515 375.637,229.515C383.038,229.515 385.131,232.708 383.879,240.271L382.786,246.321L386.131,246.321L387.463,238.758C388.805,230.859 384.631,226.333 376.562,226.333L375.889,226.333C366.133,226.333 361.928,230.859 360.582,238.758L354.41,274.041C352.903,282.361 357.225,286.467 365.292,286.467L365.965,286.467C375.721,286.467 379.758,282.277 381.272,274.041L384.298,256.909Z" style="fill:white;fill-rule:nonzero;"/>
            </g>
            <g transform="matrix(1.15445,0,0,9.38777,-31.9885,-1904.02)">
                <path d="M413.079,285.795L413.667,282.613L394.353,282.613L398.719,257.571L415.178,257.571L415.766,254.389L399.307,254.389L403.59,230.187L422.652,230.187L423.156,227.005L400.735,227.005L390.406,285.795L413.079,285.795Z" style="fill:white;fill-rule:nonzero;"/>
            </g>
            <g transform="matrix(1.15445,0,0,9.38777,-31.9885,-1904.02)">
                <path d="M446.18,227.005L432.824,227.005L422.492,285.795L435.848,285.795C445.592,285.795 449.708,281.437 451.136,273.371L457.075,239.429C458.501,231.363 454.241,227.005 446.18,227.005ZM453.488,240.941L448.028,271.859C446.684,279.421 443.492,282.613 436.1,282.613L426.44,282.613L435.68,230.187L445.34,230.187C452.732,230.187 454.825,233.379 453.488,240.941Z" style="fill:white;fill-rule:nonzero;"/>
            </g>
            <g transform="matrix(1.15445,0,0,9.38777,-31.9885,-1904.02)">
                <path d="M495.06,227.005L465.669,227.005L464.158,235.563L473.983,235.563L465.166,285.795L474.906,285.795L483.723,235.563L493.548,235.563L495.06,227.005Z" style="fill:white;fill-rule:nonzero;"/>
            </g>
            <g transform="matrix(1.15445,0,0,9.38777,-31.9885,-1904.02)">
                <path d="M529.492,227.005L519.832,227.005L505.383,270.594L506.224,227.005L496.548,227.005L497.305,285.795L508.072,285.795L529.492,227.005Z" style="fill:white;fill-rule:nonzero;"/>
            </g>
        </g>
    </g>
</svg>
